<svg width="140" height="40" viewBox="0 0 140 40" fill="none" xmlns="http://www.w3.org/2000/svg">
<path d="M15.1612 6.62119V17.9041H4.88077V6.62119H0V33.5546H4.88077V22.6381H15.1612V33.5546H20.042V6.62119H15.1612Z" fill="#33475B"/>
<path d="M35.6623 24.8484C35.6623 25.9278 35.2369 26.963 34.4797 27.7262C33.7225 28.4895 32.6954 28.9183 31.6245 28.9183C30.5536 28.9183 29.5266 28.4895 28.7694 27.7262C28.0121 26.963 27.5867 25.9278 27.5867 24.8484V13.3124H22.957V24.8484C22.957 27.1632 23.8693 29.3832 25.4932 31.02C27.1171 32.6568 29.3196 33.5763 31.6162 33.5763C33.9127 33.5763 36.1152 32.6568 37.7391 31.02C39.363 29.3832 40.2753 27.1632 40.2753 24.8484V13.3124H35.6623V24.8484Z" fill="#33475B"/>
<path d="M69.9645 14.5007C69.9645 12.1361 71.5165 11.3865 73.2168 11.3865C74.587 11.3865 76.3973 12.4374 77.581 13.7125L80.6133 10.1114C79.0995 8.04813 76.029 6.62119 73.5157 6.62119C68.4938 6.62119 64.8613 9.58594 64.8613 14.5007C64.8613 23.6191 75.919 20.7266 75.919 25.8294C75.919 27.4034 74.4029 28.7941 72.6668 28.7941C69.9286 28.7941 69.0415 27.4443 67.7836 26.0174L64.4189 29.5438C66.5712 32.2072 69.2256 33.5594 72.4061 33.5594C77.1769 33.5594 81.015 30.5585 81.015 25.868C81.015 15.7444 69.9573 18.89 69.9573 14.5007" fill="#33475B"/>
<path d="M138.371 29.2521C135.636 29.2521 134.859 28.0589 134.859 26.2319V18.1451H139.11V14.0475H134.859V8.64103L130.164 10.7646V27.237C130.164 31.4503 133.048 33.5738 137.004 33.5738C137.624 33.5852 138.244 33.5352 138.855 33.4244L140 29.1749C139.483 29.2111 138.89 29.2472 138.371 29.2472" fill="#33475B"/>
<path d="M53.2845 13.4472C50.9912 13.4472 49.3913 14.1173 47.8441 15.6479V6.78255H43.2073V23.214C43.2073 29.3652 47.6193 33.5786 52.5766 33.5786C58.0768 33.5786 62.9145 29.2905 62.9145 23.5153C62.9145 17.8124 58.4618 13.4496 53.2845 13.4496V13.4472ZM53.2558 28.8759C52.2153 28.8759 51.1981 28.5649 50.3329 27.9823C49.4678 27.3996 48.7934 26.5714 48.3953 25.6024C47.9971 24.6335 47.8929 23.5673 48.0959 22.5386C48.2989 21.51 48.7999 20.5651 49.5357 19.8235C50.2715 19.0819 51.2089 18.5768 52.2294 18.3722C53.25 18.1676 54.3078 18.2726 55.2691 18.674C56.2304 19.0754 57.0521 19.755 57.6301 20.6271C58.2082 21.4991 58.5168 22.5243 58.5168 23.5731C58.5168 24.9795 57.9625 26.3283 56.9759 27.3228C55.9892 28.3173 54.6511 28.8759 53.2558 28.8759Z" fill="#33475B"/>
<path d="M103.632 23.2696C103.632 17.4847 98.8039 13.2063 93.2942 13.2063C88.3369 13.2063 83.9248 17.4197 83.9248 23.5709V40.012H88.5616V31.1346C90.1065 32.6628 91.7087 33.3353 93.9996 33.3353C99.1769 33.3353 103.63 28.9749 103.63 23.2696H103.632ZM99.2415 23.2118C99.2415 24.2606 98.9329 25.2858 98.3548 26.1578C97.7767 27.0299 96.9551 27.7095 95.9938 28.1109C95.0324 28.5123 93.9746 28.6173 92.9541 28.4127C91.9336 28.2081 90.9962 27.703 90.2604 26.9614C89.5246 26.2198 89.0236 25.2749 88.8206 24.2463C88.6176 23.2176 88.7218 22.1514 89.12 21.1825C89.5181 20.2135 90.1925 19.3853 91.0576 18.8026C91.9228 18.22 92.9399 17.909 93.9805 17.909C95.3758 17.909 96.7139 18.4676 97.7006 19.4621C98.6872 20.4566 99.2415 21.8054 99.2415 23.2118Z" fill="#33475B"/>
<path d="M118.612 12.9798V8.28441C119.227 7.99447 119.749 7.53425 120.115 6.95732C120.481 6.38039 120.677 5.71049 120.68 5.02559V4.91713C120.68 3.95822 120.302 3.0386 119.63 2.36055C118.957 1.6825 118.045 1.30158 117.093 1.30158H116.986C116.034 1.30158 115.122 1.6825 114.449 2.36055C113.777 3.0386 113.399 3.95822 113.399 4.91713V5.02559C113.402 5.71049 113.598 6.38039 113.964 6.95732C114.33 7.53425 114.852 7.99447 115.467 8.28441V12.9798C113.698 13.2526 112.031 13.9919 110.637 15.1226L97.8619 5.09308C97.9523 4.76235 98.0005 4.42135 98.0054 4.07832C98.0068 3.27255 97.7711 2.48446 97.3281 1.81373C96.8851 1.143 96.2547 0.61976 95.5167 0.310195C94.7786 0.000630294 93.966 -0.0813521 93.1817 0.0746175C92.3974 0.230587 91.6766 0.617502 91.1105 1.18642C90.5444 1.75534 90.1584 2.48071 90.0014 3.27077C89.8443 4.06083 89.9232 4.8801 90.2282 5.62494C90.5331 6.36979 91.0504 7.00674 91.7145 7.45525C92.3786 7.90375 93.1598 8.14365 93.9592 8.1446C94.6583 8.14145 95.3443 7.95363 95.9488 7.59986L108.53 17.4655C107.399 19.1864 106.81 21.2107 106.837 23.2745C106.865 25.3383 107.509 27.3458 108.685 29.0352L104.859 32.8918C104.55 32.7922 104.227 32.7394 103.903 32.7351C103.246 32.7356 102.605 32.9322 102.059 33.3C101.514 33.6678 101.089 34.1903 100.838 34.8015C100.587 35.4128 100.521 36.0853 100.65 36.734C100.778 37.3828 101.094 37.9787 101.558 38.4464C102.022 38.9142 102.613 39.2327 103.257 39.3619C103.9 39.4911 104.568 39.425 105.174 39.1721C105.78 38.9192 106.299 38.4907 106.664 37.9409C107.029 37.3911 107.224 36.7446 107.224 36.0831C107.22 35.7558 107.168 35.4308 107.069 35.119L110.854 31.3034C112.089 32.2608 113.524 32.9208 115.05 33.2328C116.577 33.5447 118.154 33.5004 119.661 33.1032C121.168 32.706 122.565 31.9665 123.744 30.9412C124.924 29.9159 125.855 28.6322 126.466 27.1882C127.077 25.7442 127.353 24.1784 127.271 22.6106C127.189 21.0429 126.753 19.5148 125.994 18.1433C125.236 16.7719 124.177 15.5936 122.897 14.6986C121.618 13.8036 120.152 13.2156 118.612 12.9798ZM117.043 28.4206C116.008 28.4196 114.996 28.1093 114.135 27.5288C113.274 26.9483 112.604 26.1237 112.208 25.1592C111.813 24.1947 111.709 23.1336 111.912 22.11C112.114 21.0864 112.613 20.1463 113.346 19.4084C114.078 18.6706 115.011 18.1681 116.026 17.9646C117.042 17.761 118.095 17.8655 119.051 18.2648C120.008 18.6641 120.826 19.3403 121.401 20.208C121.977 21.0756 122.284 22.0958 122.285 23.1395C122.285 24.5395 121.733 25.8821 120.751 26.8721C119.769 27.862 118.437 28.4182 117.048 28.4182" fill="#FF7A59"/>
</svg>
