<svg width="24" height="16" viewBox="0 0 24 16" fill="none" xmlns="http://www.w3.org/2000/svg">
<path d="M8 16L16 16C18.1217 16 20.1566 15.1571 21.6569 13.6569C23.1571 12.1566 24 10.1217 24 8C24 5.87827 23.1571 3.84344 21.6569 2.34315C20.1566 0.842854 18.1217 -5.13895e-07 16 -6.99382e-07L8 -1.39876e-06C5.87827 -1.58425e-06 3.84344 0.842853 2.34315 2.34314C0.842855 3.84343 8.8487e-07 5.87827 6.99382e-07 8C5.13895e-07 10.1217 0.842854 12.1566 2.34315 13.6569C3.84344 15.1571 5.87827 16 8 16ZM16 2C17.1867 2 18.3467 2.35189 19.3334 3.01118C20.3201 3.67047 21.0892 4.60754 21.5433 5.7039C21.9974 6.80026 22.1162 8.00666 21.8847 9.17054C21.6532 10.3344 21.0818 11.4035 20.2426 12.2426C19.4035 13.0818 18.3344 13.6532 17.1705 13.8847C16.0067 14.1162 14.8003 13.9974 13.7039 13.5433C12.6075 13.0892 11.6705 12.3201 11.0112 11.3334C10.3519 10.3467 10 9.18669 10 8C10 6.4087 10.6321 4.88258 11.7574 3.75736C12.8826 2.63214 14.4087 2 16 2Z" fill="white"/>
</svg>
