<svg width="24" height="16" viewBox="0 0 24 16" fill="none" xmlns="http://www.w3.org/2000/svg">
<path d="M16 0H8C5.87827 0 3.84344 0.842855 2.34315 2.34315C0.842855 3.84344 0 5.87827 0 8C0 10.1217 0.842855 12.1566 2.34315 13.6569C3.84344 15.1571 5.87827 16 8 16H16C18.1217 16 20.1566 15.1571 21.6569 13.6569C23.1571 12.1566 24 10.1217 24 8C24 5.87827 23.1571 3.84344 21.6569 2.34315C20.1566 0.842855 18.1217 0 16 0ZM8 14C6.81331 14 5.65327 13.6481 4.66658 12.9888C3.67988 12.3295 2.91085 11.3925 2.45672 10.2961C2.0026 9.19974 1.88378 7.99334 2.11529 6.82946C2.3468 5.66557 2.91824 4.59647 3.75736 3.75736C4.59647 2.91824 5.66557 2.3468 6.82946 2.11529C7.99334 1.88378 9.19974 2.0026 10.2961 2.45672C11.3925 2.91085 12.3295 3.67988 12.9888 4.66658C13.6481 5.65327 14 6.81331 14 8C14 9.5913 13.3679 11.1174 12.2426 12.2426C11.1174 13.3679 9.5913 14 8 14Z" fill="#18191F"/>
</svg>
