<svg width="130" height="40" viewBox="0 0 130 40" fill="none" xmlns="http://www.w3.org/2000/svg">
<path d="M37.2665 28.3497C37.0625 27.8622 36.8714 27.3497 36.6674 26.9122L35.7243 24.8247L35.6861 24.7872C32.8821 18.7872 29.887 12.6872 26.7135 6.68718L26.5861 6.43718C26.2674 5.84968 25.9488 5.19968 25.6174 4.59968C25.2096 3.88718 24.8145 3.12468 24.1645 2.39968C23.5309 1.64109 22.7335 1.02991 21.8299 0.610247C20.9262 0.190581 19.9388 -0.0271072 18.939 -0.0271072C17.9392 -0.0271072 16.9518 0.190581 16.0481 0.610247C15.1445 1.02991 14.3471 1.64109 13.7135 2.39968C13.1145 3.12468 12.6684 3.88718 12.2606 4.59968C11.9419 5.24968 11.6233 5.88718 11.2919 6.47468L11.1645 6.72468C8.04194 12.7247 4.99586 18.8247 2.19194 24.8247L2.11547 24.8997C1.83508 25.5497 1.50371 26.2247 1.18508 26.9497C0.981158 27.3872 0.777236 27.8622 0.573314 28.3872C0.0227677 29.7619 -0.153039 31.2536 0.0632202 32.7153C0.27948 34.177 0.880341 35.5581 1.80659 36.7227C2.73283 37.8872 3.95249 38.795 5.34537 39.3565C6.73824 39.918 8.25625 40.1138 9.74979 39.9247C11.1817 39.7398 12.5604 39.2721 13.8027 38.5497C15.4596 37.6372 17.0527 36.3122 18.837 34.3997C20.6214 36.3122 22.2527 37.6372 23.8714 38.5622C25.4279 39.4582 27.1906 39.9528 28.9949 39.9997C31.0843 40.0082 33.1062 39.275 34.6875 37.9356C36.2687 36.5961 37.3024 34.7408 37.5978 32.7122C37.9392 31.2544 37.8237 29.7295 37.2665 28.3372V28.3497ZM18.9645 30.4247C16.7723 27.6747 15.3449 25.1497 14.8606 22.9872C14.6599 22.1858 14.6167 21.3544 14.7331 20.5372C14.8223 19.8997 15.0645 19.3372 15.3959 18.8622C16.1606 17.7747 17.4988 17.0997 18.9645 17.0997C19.6605 17.0788 20.351 17.2278 20.9739 17.5332C21.5967 17.8387 22.1325 18.291 22.5331 18.8497C22.8645 19.3497 23.1067 19.8997 23.1831 20.5372C23.3106 21.2622 23.2596 22.0997 23.0557 22.9872C22.5714 25.1122 21.1439 27.6622 18.9645 30.4247ZM35.2018 32.2747C35.0569 33.3046 34.6395 34.2794 33.991 35.1018C33.3425 35.9242 32.4856 36.5657 31.5057 36.9622C30.537 37.3622 29.4665 37.4747 28.4214 37.3622C27.4017 37.2372 26.3821 36.9122 25.337 36.3122C23.6018 35.2603 22.0415 33.9534 20.7106 32.4372C23.387 29.1872 25.0057 26.2247 25.6174 23.5872C25.9106 22.3372 25.9488 21.2122 25.8214 20.1747C25.6622 19.1913 25.2883 18.2532 24.7253 17.4247C24.0824 16.5263 23.2243 15.7965 22.2265 15.2995C21.2287 14.8026 20.1216 14.5537 19.0027 14.5747C16.6449 14.5747 14.5419 15.6497 13.2674 17.4122C12.6937 18.2386 12.3229 19.1842 12.1841 20.1747C12.0184 21.2247 12.0566 22.3872 12.388 23.5872C12.9998 26.2247 14.6566 29.2247 17.2949 32.4622C15.9866 34.0074 14.4226 35.3258 12.6684 36.3622C11.6106 36.9622 10.6037 37.2747 9.5841 37.3997C7.99846 37.5989 6.39674 37.1762 5.12709 36.2236C3.85744 35.2709 3.02248 33.8653 2.80371 32.3122C2.67626 31.3122 2.76547 30.3122 3.17331 29.1872C3.30077 28.7872 3.49194 28.3872 3.69586 27.9122C3.97626 27.2622 4.30763 26.5872 4.62626 25.9122L4.67724 25.8247C7.43018 19.8622 10.438 13.7747 13.5606 7.81218L13.688 7.56218C14.0066 6.96218 14.3253 6.32468 14.6566 5.72468C14.988 5.08718 15.3449 4.47468 15.8037 3.97468C16.2009 3.50971 16.6971 3.13577 17.2575 2.8792C17.8179 2.62263 18.4289 2.48966 19.0473 2.48966C19.6658 2.48966 20.2767 2.62263 20.8371 2.8792C21.3976 3.13577 21.8938 3.50971 22.291 3.97468C22.737 4.47468 23.1066 5.08718 23.438 5.72468C23.7567 6.32468 24.0753 6.97468 24.4067 7.56218L24.5341 7.81218C27.6439 13.7747 30.6517 19.8622 33.4557 25.8247L33.4939 25.8622C33.8253 26.5122 34.1057 27.2372 34.4243 27.8622C34.6282 28.3497 34.8321 28.7372 34.9596 29.1497C35.2018 30.2747 35.3292 31.2747 35.2018 32.2747ZM52.9429 30.1497C51.9825 30.1635 51.0313 29.965 50.1598 29.569C49.2883 29.173 48.5189 28.5896 47.9086 27.8622C46.5373 26.3121 45.8095 24.3135 45.8694 22.2622C45.8484 20.1662 46.5997 18.1332 47.9851 16.5372C48.6259 15.8005 49.4236 15.2105 50.322 14.8088C51.2205 14.4071 52.1977 14.2034 53.1851 14.2122C54.1141 14.1872 55.0343 14.3944 55.8593 14.8143C56.6842 15.2341 57.3867 15.8528 57.9008 16.6122L58.0282 14.6497H61.7498V29.7497H58.0155L57.888 27.5497C57.358 28.3605 56.6255 29.025 55.76 29.4801C54.8945 29.9351 53.9248 30.1656 52.9429 30.1497ZM53.9116 26.5497C54.6508 26.5497 55.3008 26.3497 55.9125 25.9872C56.4733 25.5872 56.9321 25.0622 57.289 24.4247C57.6076 23.7872 57.7733 23.0247 57.7733 22.1747C57.823 21.4364 57.6765 20.6982 57.3481 20.0321C57.0197 19.366 56.5207 18.7949 55.8998 18.3747C55.3032 18.0101 54.6144 17.8169 53.9116 17.8169C53.2087 17.8169 52.5199 18.0101 51.9233 18.3747C51.3625 18.7747 50.9037 19.2997 50.5468 19.9372C50.2098 20.6402 50.044 21.4105 50.0625 22.1872C50.0128 22.9254 50.1594 23.6637 50.4878 24.3298C50.8162 24.9959 51.3152 25.5669 51.9361 25.9872C52.5351 26.3497 53.1851 26.5497 53.9116 26.5497ZM68.1223 10.5747C68.1223 11.0122 68.0459 11.4122 67.8419 11.7372C67.638 12.0497 67.3576 12.3372 66.988 12.5372C66.6184 12.7372 66.2233 12.8122 65.8155 12.8122C65.4076 12.8122 64.9998 12.7372 64.6302 12.5372C64.2806 12.3463 63.9867 12.0709 63.7763 11.7372C63.5789 11.3811 63.4821 10.9798 63.4959 10.5747C63.4959 10.1247 63.5851 9.72468 63.7763 9.41218C63.9802 9.03718 64.2733 8.81218 64.6302 8.61218C64.9998 8.41218 65.3949 8.32468 65.8155 8.32468C66.2212 8.31551 66.6223 8.40975 66.9798 8.59817C67.3372 8.7866 67.6387 9.06277 67.8547 9.39968C68.0402 9.76411 68.132 10.1675 68.1223 10.5747ZM63.789 29.6997V14.6247H67.8419V29.7247H63.7763L63.789 29.6997ZM78.6753 18.5747V18.6247C78.4841 18.5372 78.2292 18.4997 78.038 18.4622C77.7831 18.4122 77.5792 18.4122 77.337 18.4122C76.2027 18.4122 75.3488 18.7372 74.788 19.4122C74.1763 20.0997 73.8959 21.0622 73.8959 22.2997V29.7122H69.8302V14.6122H73.5645L73.6919 16.8997C74.0998 16.0997 74.5841 15.4997 75.2723 15.0497C75.9569 14.6124 76.7629 14.3941 77.5792 14.4247C77.8723 14.4247 78.1527 14.4497 78.3949 14.4997C78.5223 14.5372 78.5988 14.5372 78.6753 14.5747V18.5747ZM80.3066 29.6997V8.42468H84.3596V16.5497C84.9331 15.8247 85.5831 15.2622 86.3988 14.8247C87.6901 14.2037 89.1571 14.0276 90.563 14.3247C91.969 14.6218 93.2318 15.3748 94.1478 16.4622C95.5222 18.0154 96.2501 20.0191 96.187 22.0747C96.208 24.1707 95.4567 26.2036 94.0714 27.7997C93.4305 28.5364 92.6328 29.1264 91.7344 29.5281C90.836 29.9298 89.8587 30.1334 88.8714 30.1247C87.9423 30.1496 87.0221 29.9424 86.1972 29.5226C85.3722 29.1028 84.6697 28.4841 84.1557 27.7247L84.0282 29.6872L80.3066 29.7247V29.6997ZM88.1449 26.5497C88.8714 26.5497 89.5214 26.3497 90.1331 25.9872C90.6939 25.5872 91.1527 25.0622 91.5096 24.4247C91.841 23.7872 91.9939 23.0247 91.9939 22.1747C91.9939 21.3372 91.841 20.5747 91.5096 19.9372C91.1749 19.3225 90.7047 18.7887 90.1331 18.3747C89.5366 18.0101 88.8478 17.8169 88.1449 17.8169C87.442 17.8169 86.7532 18.0101 86.1567 18.3747C85.5831 18.7747 85.1371 19.2997 84.7674 19.9372C84.4304 20.6402 84.2646 21.4105 84.2831 22.1872C84.2334 22.9254 84.38 23.6637 84.7084 24.3298C85.0368 24.9959 85.5358 25.5669 86.1567 25.9872C86.7557 26.3497 87.4057 26.5497 88.1449 26.5497ZM97.7165 29.7122V14.6122H101.451L101.578 16.5747C102.048 15.8224 102.713 15.2068 103.506 14.7914C104.3 14.3761 105.192 14.1761 106.09 14.2122C107.117 14.1948 108.127 14.4748 108.993 15.0173C109.859 15.5598 110.543 16.3406 110.959 17.2622C111.405 18.2122 111.647 19.3872 111.647 20.6997V29.7497H107.581V21.2247C107.581 20.1747 107.339 19.3497 106.855 18.7372C106.37 18.1372 105.708 17.8122 104.866 17.8122C104.255 17.8122 103.719 17.9372 103.248 18.2122C102.802 18.4997 102.432 18.8622 102.152 19.3747C101.868 19.8927 101.728 20.4744 101.744 21.0622V29.7122H97.7165ZM113.673 29.7122V8.41218H117.739V16.5372C118.29 15.8081 119.006 15.215 119.831 14.8049C120.657 14.3948 121.568 14.179 122.493 14.1747C123.453 14.1609 124.405 14.3594 125.276 14.7554C126.148 15.1514 126.917 15.7347 127.527 16.4622C128.892 18.0153 129.615 20.0129 129.554 22.0622C129.576 24.1584 128.824 26.1917 127.438 27.7872C126.797 28.5239 125.999 29.1139 125.101 29.5156C124.203 29.9173 123.225 30.1209 122.238 30.1122C121.309 30.1371 120.389 29.9299 119.564 29.5101C118.739 29.0903 118.036 28.4716 117.522 27.7122L117.408 29.6747L113.673 29.7122ZM121.55 26.5497C122.289 26.5497 122.939 26.3497 123.538 25.9872C124.112 25.5872 124.558 25.0622 124.927 24.4247C125.246 23.7872 125.412 23.0247 125.412 22.1747C125.461 21.4364 125.315 20.6982 124.986 20.0321C124.658 19.366 124.159 18.7949 123.538 18.3747C122.941 18.0101 122.253 17.8169 121.55 17.8169C120.847 17.8169 120.158 18.0101 119.562 18.3747C119.001 18.7747 118.542 19.2997 118.185 19.9372C117.829 20.6339 117.663 21.4088 117.701 22.1872C117.651 22.9254 117.798 23.6637 118.126 24.3298C118.454 24.9959 118.953 25.5669 119.574 25.9872C120.173 26.3497 120.785 26.5497 121.55 26.5497Z" fill="#FF385C"/>
</svg>
